<?xml version="1.0" encoding="UTF-8"?>
<!-- Created with Inkscape (http://www.inkscape.org/) -->
<svg width="106.74mm" height="169.17mm" version="1.1" viewBox="0 0 106.74 169.17" xmlns="http://www.w3.org/2000/svg">
 <g transform="translate(11.984 77.467)" style="stroke:#900">
  <path d="m6.8239-3.3595-6.1118 0.72864-0.27389 2.7244 5.5733 3.6008 4.1377 12.562 14.851 2.574 10.228-3.1063 4.5573-11.977 5.4958-0.040824 5.5743 11.948 11.94 3.2324 11.854-2.791 4.8147-13.318 3.5703-1.0294-5.17e-4 -4.1527-1.1007-0.44752-31.712-0.3328-4.8323 2.9156-6.1097-0.0025838-3.9424-2.868zm67.801 1.9828 1.4697 1.3829 0.7984 3.6065-3.5621 10.581-10.433 2.4536-10.483-2.7952-4.3801-9.078-0.1943-4.2891 2.82-1.8454zm-62.871 0.083716 23.147 0.22738 2.1709 1.6867 0.11886 4.733-3.4587 8.8475-8.7907 2.6588-13.264-2.3477-3.6571-10.952 1.0098-4.0737z" style="fill:none;stroke:#900"/>
  <path d="m-9.8206-0.58291-0.61702 12.439 3.1032 19.123 3.6453 2.2655-0.2434-28.691z" style="fill:none;stroke:#900"/>
  <path d="m92.844 1.2327-1.8554 18.945-4.3499 5.0053-0.0444-19.231z" style="fill:none;stroke:#900"/>
  <path d="m46.795-76.443-26.473 8.6005 2.0733-4.8855-18.764 11.913-15.058 24.007 1.6061 36.224 5.888 5.1361 0.24494 28.863 4.4948 27.449 12.664 18.884 22.953 11.378 16.107-3.4964 18.918-12.827 10.841-25.326 4.3491-24.294-0.0444-19.231 6.3448-4.6519 0.74621-34.919-5.1092-6.0813 5.164-1.6965-22.567-22.661 4.376-3.0872-31.071-5.9262zm-12.123 26.568 39.224 21.209 2.0309-3.0102 7.105 13.495 3e-3 32.25-3.314 19.139-1.8722-1.8795-10.23 8.6155-17.232-8.2765-20.309 1.0795-14.61 9.1064-1.3803 3.8675-12.023-10.922-2.3063-27.952 3.4794-34.589 14.194-19.476zm11.896 90.601 13.47 5.1201-3.5409 12.927-7.7313 0.31832-8.4754-7.9628-0.0734-3e-3 -5.1775 8.1494-6.919-0.87953-6.441-9.8242 6.2668-5.9066z" style="fill:none;stroke:#900"/>
 </g>
</svg>
