<?xml version="1.0" encoding="UTF-8" standalone="no"?>
<!-- Created with Inkscape (http://www.inkscape.org/) -->

<svg
   width="106.74mm"
   height="169.17mm"
   version="1.1"
   viewBox="0 0 106.74 169.17"
   xml:space="preserve"
   id="svg5251"
   sodipodi:docname="experience.svg"
   inkscape:version="1.2.1 (9c6d41e410, 2022-07-14)"
   xmlns:inkscape="http://www.inkscape.org/namespaces/inkscape"
   xmlns:sodipodi="http://sodipodi.sourceforge.net/DTD/sodipodi-0.dtd"
   xmlns="http://www.w3.org/2000/svg"
   xmlns:svg="http://www.w3.org/2000/svg"><defs
     id="defs5255" /><sodipodi:namedview
     id="namedview5253"
     pagecolor="#ffffff"
     bordercolor="#666666"
     borderopacity="1.0"
     inkscape:showpageshadow="2"
     inkscape:pageopacity="0.0"
     inkscape:pagecheckerboard="0"
     inkscape:deskcolor="#d1d1d1"
     inkscape:document-units="mm"
     showgrid="false"
     inkscape:zoom="1.4029157"
     inkscape:cx="202.07914"
     inkscape:cy="320.40414"
     inkscape:window-width="1912"
     inkscape:window-height="1054"
     inkscape:window-x="0"
     inkscape:window-y="18"
     inkscape:window-maximized="1"
     inkscape:current-layer="svg5251" /><g
     transform="translate(.18101 -.18645)"
     style="stroke:#900;stroke-width:1;stroke-dasharray:none"
     id="g5247"><path
       d="m30.207 108.98c-0.74284 1e-3 -1.4887 0.13665-2.1713 0.42975-0.68257 0.2931-1.3004 0.74694-1.7567 1.3331-0.75576 0.97066-1.0293 2.2936-0.74098 3.4896 0.26715 1.1083 0.96707 2.0534 1.63 2.9808 0.21204 0.29667 0.4234 0.59693 0.57516 0.92851 0.15176 0.33157 0.24236 0.69951 0.20055 1.0618-0.02483 0.21516-0.09696 0.4255-0.2127 0.60859-0.11574 0.18308-0.27526 0.33839-0.4636 0.44537-0.07592 0.043-0.15594 0.0774-0.23788 0.10591h-15.177v15.338c0.05593 0.11569 0.12386 0.22501 0.20792 0.32209 0.14477 0.1672 0.33312 0.29907 0.54434 0.36464 0.18693 0.0581 0.38705 0.0636 0.58124 0.0391 0.19418-0.0246 0.38335-0.0785 0.56995-0.1376 0.61806-0.19563 1.2204-0.45233 1.7628-0.80739 0.58438-0.38256 1.0961-0.87644 1.7164-1.1976 1.0358-0.5364 2.3239-0.52694 3.3767-0.0248 0.8338 0.39774 1.5173 1.0843 1.9599 1.8952 0.44258 0.8109 0.64915 1.741 0.64722 2.6648-0.0016 0.74283-0.13664 1.4887-0.42974 2.1713-0.2931 0.68257-0.74651 1.3004-1.3326 1.7567-0.97066 0.75575-2.2941 1.0297-3.49 0.7414-1.1083-0.26713-2.0534-0.9675-2.9808-1.6304-0.29667-0.21206-0.59692-0.42341-0.9285-0.57517-0.33158-0.15176-0.69951-0.24235-1.0618-0.20054-0.21516 0.0249-0.42507 0.0969-0.60815 0.2127-0.18308 0.11574-0.33885 0.27525-0.4458 0.46359-0.035 0.0616-0.06384 0.12614-0.08899 0.19187v15.46h11.587c0.22108 0.0963 0.4767 0.11063 0.70712 0.0395v-4.4e-4c0.13148-0.0157 0.26347-0.0281 0.39545-0.0391h1.7641c0.04413 3e-3 0.0883 6e-3 0.1324 0.0108 0.31785 0.0302 0.64349 0.0776 0.92112 0.23526 0.18834 0.10697 0.3483 0.26273 0.46403 0.44581 0.11574 0.18308 0.18743 0.39298 0.21227 0.60815 0.04181 0.36225-0.04878 0.73019-0.20055 1.0618-0.15176 0.33158-0.36312 0.63183-0.57516 0.9285-0.6629 0.92748-1.3628 1.8726-1.63 2.9808-0.28827 1.1959-0.01434 2.5189 0.74141 3.4896 0.45636 0.58614 1.0737 1.04 1.7563 1.3331 0.68257 0.29309 1.4284 0.42818 2.1713 0.42974 0.9238 2e-3 1.8539-0.20464 2.6648-0.64722 0.81089-0.44257 1.4975-1.1265 1.8952-1.9603 0.5022-1.0528 0.5121-2.3405-0.02431-3.3763-0.32119-0.62023-0.81551-1.132-1.1981-1.7164-0.35508-0.54239-0.61177-1.1447-0.80739-1.7628-0.05906-0.18659-0.11308-0.37576-0.1376-0.56995-0.02452-0.19419-0.01895-0.39432 0.03907-0.58124 0.06556-0.21121 0.19743-0.39956 0.36463-0.54434 0.16719-0.14477 0.3691-0.24695 0.58124-0.3095 0.08226-0.0242 0.16528-0.0422 0.24916-0.0556h0.9246c0.13421 0.0142 0.26829 0.0311 0.40109 0.0477 0.22848 0.0288 0.45822 0.0557 0.68846 0.0512 0.1987-4e-3 0.39862-0.0317 0.58514-0.099h12.124v-15.266c-0.02792-0.0787-0.06134-0.1552-0.10288-0.22833-0.10696-0.18835-0.26273-0.3483-0.4458-0.46403-0.18308-0.11573-0.39298-0.18744-0.60815-0.21227-0.36225-0.0418-0.73018 0.0488-1.0618 0.20055-0.33158 0.15176-0.63183 0.36268-0.9285 0.57472-0.92747 0.6629-1.8726 1.3633-2.9808 1.6304-1.1959 0.28827-2.5189 0.0144-3.4896-0.74142-0.58613-0.45635-1.04-1.0742-1.3331-1.7567-0.2931-0.68257-0.42818-1.428-0.42974-2.1708-0.0019-0.9238 0.20464-1.8544 0.64722-2.6652 0.44257-0.8109 1.1265-1.497 1.9603-1.8948 1.0528-0.5022 2.3405-0.5121 3.3763 0.0242 0.62023 0.3212 1.132 0.81552 1.7164 1.1981 0.5424 0.35507 1.1447 0.61177 1.7628 0.80739 0.1866 0.059 0.37577 0.11309 0.56995 0.13761 0.19418 0.0246 0.39431 0.0185 0.58124-0.0395 0.21122-0.0655 0.39957-0.197 0.54434-0.36419 0.0912-0.10533 0.16367-0.22531 0.22182-0.35204v-15.466h-15.291c-0.12786-0.0584-0.24804-0.13293-0.35421-0.22486-0.1672-0.14477-0.29906-0.33312-0.36463-0.54434-0.05802-0.18692-0.06359-0.38705-0.03907-0.58124 0.02453-0.19418 0.07854-0.38335 0.1376-0.56995 0.19563-0.61806 0.45232-1.2204 0.80739-1.7628 0.38256-0.58438 0.87644-1.0961 1.1976-1.7164 0.53641-1.0358 0.52694-2.3235 0.02475-3.3763-0.39773-0.83379-1.0843-1.5173-1.8952-1.9599-0.81089-0.44257-1.741-0.64959-2.6648-0.64765z"
       style="fill:none;stop-color:#000000;stroke-width:1;stroke:#900;stroke-dasharray:none"
       id="path5237" /><path
       d="m37.243 138.85c0.0016 0.74284 0.13664 1.4887 0.42974 2.1713 0.2931 0.68258 0.74694 1.3004 1.3331 1.7567 0.97067 0.75576 2.2936 1.0292 3.4896 0.74098 1.1083-0.26715 2.0534-0.96708 2.9808-1.63 0.29667-0.21203 0.59692-0.42339 0.9285-0.57515 0.33158-0.15176 0.69951-0.24235 1.0618-0.20054 0.21517 0.0249 0.4255 0.0969 0.60858 0.21269 0.18308 0.11574 0.33841 0.27526 0.44537 0.46361 0.04311 0.0759 0.07738 0.15593 0.10592 0.23787v15.177h15.338c0.11568-0.056 0.225-0.12385 0.32209-0.20792 0.1672-0.14477 0.29906-0.33312 0.36464-0.54434 0.05804-0.18692 0.06359-0.38705 0.03906-0.58124-0.02453-0.19418-0.07854-0.38335-0.1376-0.56995-0.19563-0.61806-0.45232-1.2204-0.80739-1.7628-0.38256-0.58438-0.87644-1.0961-1.1976-1.7164-0.5364-1.0358-0.52694-2.3239-0.02475-3.3767 0.39773-0.8338 1.0843-1.5173 1.8952-1.9599 0.81089-0.44258 1.741-0.64916 2.6648-0.64722 0.74283 2e-3 1.4887 0.13664 2.1713 0.42974 0.68257 0.2931 1.3004 0.74651 1.7567 1.3326 0.75575 0.97066 1.0297 2.2941 0.74141 3.49-0.26714 1.1083-0.9675 2.0534-1.6304 2.9808-0.21205 0.29667-0.4234 0.59692-0.57516 0.9285-0.15176 0.33158-0.24235 0.69952-0.20054 1.0618 0.02486 0.21516 0.09696 0.42507 0.2127 0.60815 0.11574 0.18308 0.27526 0.33884 0.4636 0.4458 0.06166 0.0351 0.12613 0.0638 0.19186 0.0889h15.46v-11.586c0.09631-0.22108 0.11064-0.4767 0.03948-0.70712h-4.36e-4c-0.01579-0.13149-0.02814-0.26347-0.03906-0.39545v-1.7641c0.0034-0.0441 0.0067-0.0883 0.01084-0.13241 0.03024-0.31784 0.07762-0.64348 0.23527-0.92112 0.10696-0.18834 0.26273-0.3483 0.4458-0.46403 0.18308-0.11574 0.39298-0.18743 0.60815-0.21227 0.36225-0.0418 0.73019 0.0488 1.0618 0.20054 0.33158 0.15177 0.63183 0.36313 0.9285 0.57517 0.92748 0.6629 1.8726 1.3628 2.9808 1.63 1.1959 0.28827 2.5189 0.0144 3.4896-0.74142 0.58614-0.45636 1.04-1.0737 1.3331-1.7563 0.29309-0.68257 0.42817-1.4284 0.42974-2.1713 0.0017-0.9238-0.20464-1.8539-0.64721-2.6648-0.44258-0.81088-1.1265-1.4975-1.9603-1.8952-1.0528-0.5022-2.3405-0.51209-3.3763 0.0243-0.62023 0.32119-1.132 0.8155-1.7164 1.1981-0.5424 0.35508-1.1447 0.61177-1.7628 0.80739-0.1866 0.059-0.37577 0.11308-0.56995 0.13761-0.19418 0.0246-0.39431 0.019-0.58124-0.0391-0.21122-0.0655-0.39957-0.19743-0.54434-0.36463-0.14477-0.16721-0.24695-0.3691-0.3095-0.58124-0.02428-0.0822-0.04217-0.16527-0.05561-0.24917v-0.92458c0.0142-0.13422 0.03108-0.2683 0.04771-0.40109 0.02873-0.22848 0.05569-0.45822 0.05124-0.68846-0.0042-0.1987-0.03167-0.39863-0.09897-0.58514v-12.124h-15.266c-0.07871 0.0279-0.1552 0.0613-0.22833 0.1029-0.18834 0.10695-0.3483 0.26272-0.46403 0.44579-0.11573 0.18309-0.18744 0.39299-0.21227 0.60816-0.04183 0.36225 0.0488 0.73018 0.20055 1.0618 0.15175 0.33158 0.36268 0.63184 0.57472 0.9285 0.6629 0.92748 1.3633 1.8726 1.6304 2.9808 0.28828 1.1959 0.01436 2.5189-0.74142 3.4896-0.45635 0.58613-1.0742 1.04-1.7567 1.3331-0.68257 0.29308-1.428 0.42817-2.1708 0.42973-0.9238 2e-3 -1.8544-0.20464-2.6653-0.64721-0.81089-0.44257-1.497-1.1265-1.8948-1.9603-0.5022-1.0528-0.5121-2.3405 0.02431-3.3763 0.32119-0.62024 0.81551-1.132 1.1981-1.7164 0.35507-0.5424 0.61177-1.1448 0.80739-1.7628 0.05905-0.18659 0.11308-0.37576 0.13761-0.56995 0.02453-0.19417 0.01848-0.3943-0.03948-0.58124-0.06552-0.21121-0.197-0.39956-0.36419-0.54433-0.10534-0.0912-0.22531-0.16366-0.35204-0.22182h-15.466v15.291c-0.05836 0.12786-0.13293 0.24805-0.22486 0.35421-0.14476 0.16719-0.33312 0.29907-0.54434 0.36463-0.18693 0.0581-0.38705 0.0636-0.58124 0.0391-0.19418-0.0246-0.38335-0.0785-0.56995-0.1376-0.61806-0.19562-1.2204-0.45233-1.7628-0.8074-0.58438-0.38255-1.0961-0.87643-1.7164-1.1976-1.0358-0.53641-2.3235-0.52694-3.3763-0.0248-0.8338 0.39773-1.5173 1.0843-1.9599 1.8952s-0.6496 1.741-0.64765 2.6648z"
       style="fill:none;stop-color:#000000;stroke-width:1;stroke:#900;stroke-dasharray:none"
       id="path5239" /><path
       d="m0.23901 102.04c0.001575 0.74283 0.13664 1.4887 0.42974 2.1713 0.2931 0.68256 0.74694 1.3004 1.3331 1.7567 0.97067 0.75576 2.2936 1.0293 3.4896 0.74098 1.1083-0.26715 2.0534-0.96707 2.9808-1.63 0.29667-0.21205 0.59692-0.4234 0.9285-0.57516 0.33158-0.15175 0.69951-0.24235 1.0618-0.20054 0.21517 0.0249 0.4255 0.0969 0.60858 0.21269 0.18308 0.11574 0.33841 0.27527 0.44537 0.46361 0.04311 0.0759 0.07738 0.15593 0.10592 0.23787v15.177h15.338c0.11568-0.056 0.225-0.12386 0.32209-0.20793 0.1672-0.14476 0.29906-0.33311 0.36464-0.54433 0.05804-0.18693 0.06359-0.38706 0.03906-0.58124-0.02453-0.19419-0.07854-0.38335-0.1376-0.56995-0.19563-0.61806-0.45232-1.2204-0.80739-1.7628-0.38256-0.58438-0.87644-1.0961-1.1976-1.7164-0.5364-1.0358-0.52694-2.3239-0.02475-3.3767 0.39773-0.8338 1.0843-1.5173 1.8952-1.9599 0.81089-0.44256 1.741-0.64914 2.6648-0.64721 0.74283 2e-3 1.4887 0.13665 2.1713 0.42973 0.68257 0.29311 1.3004 0.74651 1.7567 1.3326 0.75575 0.97067 1.0297 2.2941 0.74141 3.49-0.26714 1.1083-0.9675 2.0534-1.6304 2.9808-0.21205 0.29667-0.4234 0.5969-0.57516 0.92849-0.15176 0.33158-0.24235 0.69951-0.20054 1.0618 0.02486 0.21517 0.09696 0.42509 0.2127 0.60816 0.11574 0.18308 0.27526 0.33885 0.4636 0.44579 0.06166 0.0351 0.12613 0.0638 0.19186 0.0889h15.46v-11.587c0.09631-0.22108 0.11064-0.4767 0.03948-0.70712h-4.37e-4c-0.01579-0.13148-0.02814-0.26348-0.03906-0.39544v-1.7641c0.0034-0.0441 0.0067-0.0883 0.01084-0.13239 0.03024-0.31786 0.07762-0.64349 0.23527-0.92113 0.10697-0.18835 0.26273-0.34829 0.4458-0.46403s0.39298-0.18744 0.60815-0.21227c0.36225-0.0418 0.73019 0.0488 1.0618 0.20055 0.33158 0.15175 0.63183 0.36312 0.9285 0.57516 0.92748 0.6629 1.8726 1.3628 2.9808 1.63 1.1959 0.28828 2.5189 0.0144 3.4896-0.74141 0.58614-0.45635 1.04-1.0737 1.3331-1.7563 0.29309-0.68258 0.42817-1.4284 0.42974-2.1713 0.0017-0.9238-0.20464-1.8539-0.64721-2.6648-0.44258-0.81088-1.1265-1.4975-1.9603-1.8952-1.0528-0.50221-2.3405-0.5121-3.3763 0.0243-0.62023 0.32119-1.132 0.81551-1.7164 1.1981-0.5424 0.35508-1.1447 0.61177-1.7628 0.8074-0.1866 0.059-0.37576 0.11307-0.56995 0.1376-0.19418 0.0246-0.39431 0.019-0.58124-0.0391-0.21122-0.0655-0.39957-0.19743-0.54434-0.36463-0.14477-0.16719-0.24695-0.3691-0.3095-0.58123-0.02428-0.0822-0.04217-0.16528-0.05561-0.24916v-0.92459c0.0142-0.13422 0.03108-0.2683 0.04771-0.4011 0.02873-0.22848 0.05569-0.45822 0.05124-0.68845-0.0042-0.19871-0.03167-0.39863-0.09897-0.58515v-12.124h-15.266c-0.07871 0.02789-0.1552 0.06132-0.22833 0.10288-0.18834 0.10696-0.3483 0.26273-0.46403 0.4458-0.11573 0.18309-0.18744 0.39299-0.21227 0.60815-0.04183 0.36226 0.0488 0.73019 0.20055 1.0618 0.15175 0.33157 0.36268 0.63183 0.57472 0.9285 0.6629 0.92747 1.3633 1.8726 1.6304 2.9808 0.28828 1.1959 0.01436 2.5189-0.74142 3.4896-0.45635 0.58612-1.0742 1.04-1.7567 1.3331-0.68257 0.29309-1.428 0.42817-2.1708 0.42974-0.9238 2e-3 -1.8544-0.20465-2.6653-0.64722-0.81089-0.44257-1.497-1.1265-1.8948-1.9603-0.5022-1.0528-0.5121-2.3405 0.02431-3.3763 0.32119-0.62023 0.81551-1.132 1.1981-1.7164 0.35507-0.5424 0.61177-1.1447 0.80739-1.7628 0.05905-0.1866 0.11308-0.37577 0.13761-0.56995 0.02453-0.19418 0.01848-0.39431-0.03948-0.58124-0.06552-0.21122-0.197-0.39957-0.36419-0.54434-0.10534-0.0912-0.22531-0.16367-0.35204-0.22182h-15.466v15.291c-0.05836 0.12787-0.13293 0.24804-0.22486 0.35421-0.14476 0.1672-0.33312 0.29907-0.54434 0.36463-0.18693 0.0581-0.38705 0.0636-0.58124 0.0391-0.19418-0.0246-0.38335-0.0785-0.56995-0.1376-0.61806-0.19563-1.2204-0.45232-1.7628-0.80739-0.58438-0.38257-1.0961-0.87645-1.7164-1.1976-1.0358-0.53641-2.3235-0.52694-3.3763-0.0248-0.8338 0.39773-1.5173 1.0843-1.9599 1.8952-0.44257 0.81088-0.6496 1.741-0.64765 2.6648z"
       style="fill:none;stop-color:#000000;stroke-width:1;stroke:#900;stroke-dasharray:none"
       id="path5241" /><path
       d="m67.31 131.72c0.74284-2e-3 1.4887-0.13665 2.1713-0.42974 0.68257-0.29311 1.3004-0.74694 1.7567-1.3331 0.75576-0.97066 1.0293-2.2936 0.74098-3.4896-0.26715-1.1083-0.96708-2.0534-1.63-2.9808-0.21204-0.29666-0.42339-0.59691-0.57516-0.9285-0.15176-0.33158-0.24235-0.69951-0.20054-1.0618 0.02486-0.21517 0.09696-0.4255 0.2127-0.60858 0.11574-0.18308 0.27526-0.33842 0.4636-0.44537 0.07594-0.043 0.15593-0.0774 0.23787-0.10592h15.177v-15.338c-0.05594-0.11569-0.12386-0.225-0.20792-0.32209-0.14477-0.1672-0.33312-0.29907-0.54434-0.36464-0.18692-0.0581-0.38706-0.0636-0.58124-0.0391-0.19418 0.0246-0.38335 0.0785-0.56995 0.1376-0.61806 0.19563-1.2204 0.45233-1.7628 0.8074-0.58438 0.38256-1.0961 0.87645-1.7164 1.1976-1.0358 0.53641-2.3239 0.52694-3.3767 0.0248-0.8338-0.39773-1.5173-1.0843-1.9599-1.8952-0.44257-0.81088-0.64914-1.741-0.64721-2.6648 0.0017-0.74283 0.13664-1.4887 0.42974-2.1713 0.2931-0.68256 0.74651-1.3004 1.3326-1.7567 0.97066-0.75575 2.2941-1.0297 3.49-0.74141 1.1083 0.26713 2.0534 0.9675 2.9808 1.6304 0.29667 0.21205 0.59691 0.4234 0.92849 0.57516 0.33158 0.15176 0.69952 0.24235 1.0618 0.20054 0.21517-0.0249 0.42507-0.0969 0.60815-0.21269 0.18308-0.11575 0.33885-0.27527 0.4458-0.46361 0.03503-0.0616 0.06384-0.12613 0.08899-0.19186v-15.46h-11.587c-0.22108-0.09631-0.4767-0.11064-0.70712-0.03948v4.36e-4c-0.13148 0.01579-0.26347 0.02814-0.39545 0.03906h-1.7641c-0.0441-0.0034-0.0883-0.0067-0.1324-0.01084-0.31785-0.03024-0.64348-0.07762-0.92112-0.23527-0.18834-0.10696-0.3483-0.26273-0.46403-0.4458-0.11574-0.18308-0.18744-0.39298-0.21227-0.60815-0.04183-0.36225 0.0488-0.73019 0.20054-1.0618 0.15176-0.33158 0.36312-0.63183 0.57516-0.9285 0.6629-0.92748 1.3628-1.8726 1.63-2.9808 0.28827-1.1959 0.01436-2.5189-0.74142-3.4896-0.45636-0.58614-1.0737-1.04-1.7563-1.3331-0.68258-0.29309-1.4284-0.42817-2.1713-0.42974-0.9238-0.0017-1.8539 0.20464-2.6648 0.64721-0.81088 0.44258-1.4975 1.1265-1.8952 1.9603-0.5022 1.0528-0.5121 2.3405 0.02428 3.3763 0.32119 0.62023 0.8155 1.132 1.1981 1.7164 0.35508 0.5424 0.61177 1.1447 0.80739 1.7628 0.05905 0.1866 0.11308 0.37577 0.13761 0.56995 0.02453 0.19418 0.01898 0.39431-0.03906 0.58124-0.06552 0.21122-0.19743 0.39957-0.36464 0.54434-0.16719 0.14477-0.3691 0.24695-0.58123 0.3095-0.08224 0.02428-0.16528 0.04217-0.24917 0.05561h-0.92459c-0.13422-0.0142-0.2683-0.03108-0.40109-0.04771-0.22848-0.02873-0.45822-0.05569-0.68846-0.05124-0.1987 0.0042-0.39863 0.03167-0.58514 0.09897h-12.124v15.266c0.02789 0.0787 0.06132 0.1552 0.10288 0.22833 0.10696 0.18834 0.26273 0.3483 0.4458 0.46403 0.18309 0.11574 0.39298 0.18745 0.60815 0.21227 0.36226 0.0418 0.73019-0.0488 1.0618-0.20055 0.33157-0.15175 0.63183-0.36267 0.9285-0.57472 0.92747-0.6629 1.8726-1.3633 2.9808-1.6304 1.1959-0.28828 2.5189-0.0144 3.4896 0.74142 0.58613 0.45634 1.04 1.0742 1.3331 1.7567 0.29309 0.68256 0.42817 1.428 0.42974 2.1708 0.0017 0.92381-0.20464 1.8544-0.64721 2.6653-0.44257 0.8109-1.1265 1.497-1.9603 1.8948-1.0528 0.50219-2.3405 0.51211-3.3763-0.0243-0.62023-0.32119-1.132-0.81551-1.7164-1.1981-0.5424-0.35507-1.1447-0.61177-1.7628-0.80739-0.1866-0.059-0.37577-0.11309-0.56995-0.13762-0.19418-0.0246-0.39431-0.0185-0.58124 0.0395-0.21122 0.0655-0.39957 0.197-0.54434 0.3642-0.0912 0.10533-0.16367 0.2253-0.22182 0.35204v15.466h15.291c0.12786 0.0584 0.24804 0.13293 0.35421 0.22485 0.16719 0.14476 0.29906 0.33312 0.36463 0.54434 0.05804 0.18693 0.06359 0.38705 0.03906 0.58124-0.02453 0.19417-0.07854 0.38334-0.1376 0.56994-0.19563 0.61807-0.45232 1.2204-0.80739 1.7628-0.38256 0.58438-0.87644 1.0961-1.1976 1.7164-0.53641 1.0358-0.52694 2.3235-0.02478 3.3763 0.39773 0.8338 1.0843 1.5173 1.8952 1.9599 0.81088 0.44259 1.741 0.64961 2.6648 0.64766z"
       style="fill:none;stop-color:#000000;stroke-width:1;stroke:#900;stroke-dasharray:none"
       id="path5243" /><path
       d="m30.023 35.024c-0.74284 0.0017-1.4887 0.13664-2.1713 0.42974-0.68257 0.2931-1.3004 0.74694-1.7567 1.3331-0.75576 0.97067-1.0293 2.2937-0.74098 3.4896 0.26715 1.1083 0.96708 2.0534 1.63 2.9808 0.21204 0.29667 0.42339 0.59692 0.57516 0.9285 0.15175 0.33158 0.24235 0.69951 0.20054 1.0618-0.02486 0.21517-0.09696 0.4255-0.2127 0.60858-0.11574 0.18308-0.27526 0.33841-0.4636 0.44537-0.07594 0.04309-0.15593 0.07736-0.23787 0.10592h-15.177v15.338c0.05594 0.11568 0.12386 0.225 0.20792 0.32209 0.14477 0.1672 0.33312 0.29906 0.54434 0.36464 0.18692 0.05804 0.38706 0.06359 0.58124 0.03906s0.38335-0.07854 0.56995-0.1376c0.61806-0.19563 1.2204-0.45232 1.7628-0.8074 0.58438-0.38255 1.0961-0.87644 1.7164-1.1976 1.0358-0.53641 2.3239-0.52694 3.3767-0.02478 0.8338 0.39773 1.5173 1.0843 1.9599 1.8952 0.44257 0.81089 0.64914 1.741 0.64721 2.6648-0.0017 0.74283-0.13664 1.4887-0.42974 2.1713-0.2931 0.68257-0.74651 1.3004-1.3326 1.7567-0.97066 0.75575-2.2941 1.0297-3.49 0.74141-1.1083-0.26714-2.0534-0.9675-2.9808-1.6304-0.29667-0.21205-0.59691-0.4234-0.92849-0.57516-0.33158-0.15175-0.69952-0.24235-1.0618-0.20054-0.21517 0.02486-0.42507 0.09696-0.60815 0.2127-0.18308 0.11574-0.33885 0.27526-0.4458 0.4636-0.03503 0.06166-0.06384 0.12614-0.08899 0.19186v15.46h11.587c0.22108 0.09631 0.4767 0.11064 0.70712 0.03948v-4.37e-4c0.13149-0.01579 0.26348-0.02814 0.39545-0.03906h1.7641c0.0441 0.0034 0.0883 0.0067 0.1324 0.01084 0.31785 0.03024 0.64348 0.07762 0.92112 0.23527 0.18834 0.10696 0.3483 0.26273 0.46403 0.4458s0.18744 0.39299 0.21227 0.60815c0.04183 0.36225-0.0488 0.73019-0.20054 1.0618-0.15176 0.33158-0.36312 0.63183-0.57516 0.9285-0.6629 0.92748-1.3628 1.8726-1.63 2.9808-0.28827 1.1959-0.01436 2.5189 0.74142 3.4896 0.45636 0.58614 1.0737 1.04 1.7563 1.3331 0.68258 0.2931 1.4284 0.42818 2.1713 0.42974 0.9238 2e-3 1.8539-0.20464 2.6648-0.64721 0.81089-0.44258 1.4975-1.1265 1.8952-1.9603 0.5022-1.0528 0.5121-2.3405-0.02428-3.3763-0.32119-0.62023-0.81551-1.132-1.1981-1.7164-0.35508-0.5424-0.61177-1.1447-0.80739-1.7628-0.05905-0.1866-0.11308-0.37577-0.13761-0.56995-0.02453-0.19418-0.01898-0.39431 0.03906-0.58124 0.06552-0.21122 0.19743-0.39957 0.36464-0.54434 0.16719-0.14477 0.3691-0.24695 0.58123-0.3095 0.08224-0.02428 0.16528-0.04217 0.24917-0.05561h0.92459c0.13422 0.0142 0.2683 0.03108 0.40109 0.04771 0.22848 0.02873 0.45822 0.05569 0.68846 0.05124 0.1987-0.0042 0.39863-0.03167 0.58514-0.09897h12.124v-15.266c-0.02789-0.07871-0.06132-0.1552-0.10288-0.22833-0.10696-0.18834-0.26273-0.3483-0.4458-0.46403-0.18309-0.11574-0.39299-0.18744-0.60815-0.21227-0.36226-0.04183-0.73019 0.0488-1.0618 0.20055-0.33157 0.15175-0.63183 0.36268-0.9285 0.57472-0.92747 0.6629-1.8726 1.3633-2.9808 1.6304-1.1959 0.28828-2.5189 0.01436-3.4896-0.74142-0.58613-0.45635-1.04-1.0742-1.3331-1.7567-0.29309-0.68257-0.42817-1.428-0.42974-2.1708-0.0017-0.9238 0.20464-1.8544 0.64721-2.6653 0.44257-0.81089 1.1265-1.497 1.9603-1.8948 1.0528-0.50219 2.3405-0.5121 3.3763 0.02428 0.62023 0.3212 1.132 0.81551 1.7164 1.1981 0.5424 0.35508 1.1447 0.61177 1.7628 0.8074 0.1866 0.05905 0.37577 0.11308 0.56995 0.13761 0.19418 0.02453 0.39431 0.01848 0.58124-0.03948 0.21122-0.06552 0.39957-0.197 0.54434-0.36419 0.0912-0.10534 0.16367-0.22531 0.22182-0.35204v-15.466h-15.291c-0.12786-0.05838-0.24804-0.13293-0.35421-0.22485-0.16719-0.14477-0.29907-0.33312-0.36463-0.54434-0.05804-0.18693-0.06359-0.38706-0.03906-0.58124s0.07854-0.38335 0.1376-0.56995c0.19563-0.61806 0.45232-1.2204 0.80739-1.7628 0.38256-0.58438 0.87644-1.0961 1.1976-1.7164 0.53641-1.0358 0.52694-2.3235 0.02478-3.3763-0.39773-0.8338-1.0843-1.5173-1.8952-1.9599-0.81088-0.44258-1.741-0.6496-2.6648-0.64766z"
       style="fill:none;stop-color:#000000;stroke-width:1;stroke:#900;stroke-dasharray:none"
       id="path5245" /></g><path
     d="m46.365 18.862c0.0017 0.74284 0.13664 1.4887 0.42974 2.1713 0.2931 0.68257 0.74694 1.3004 1.3331 1.7567 0.97067 0.75576 2.2937 1.0293 3.4896 0.74098 1.1083-0.26715 2.0534-0.96708 2.9808-1.63 0.29667-0.21204 0.59692-0.42339 0.9285-0.57516 0.33158-0.15176 0.69951-0.24235 1.0618-0.20054 0.21517 0.02486 0.4255 0.09696 0.60858 0.2127s0.33841 0.27526 0.44537 0.4636c0.04309 0.07594 0.07736 0.15593 0.10592 0.23787v15.177h15.338c0.11568-0.05594 0.225-0.12386 0.32209-0.20792 0.1672-0.14477 0.29906-0.33312 0.36464-0.54434 0.05804-0.18692 0.06359-0.38706 0.03906-0.58124s-0.07854-0.38335-0.1376-0.56995c-0.19563-0.61806-0.45232-1.2204-0.8074-1.7628-0.38255-0.58438-0.87644-1.0961-1.1976-1.7164-0.53641-1.0358-0.52694-2.3239-0.02478-3.3767 0.39773-0.8338 1.0843-1.5173 1.8952-1.9599 0.81088-0.44257 1.741-0.64914 2.6648-0.64721 0.74283 0.0017 1.4887 0.13664 2.1713 0.42974 0.68257 0.2931 1.3004 0.74651 1.7567 1.3326 0.75575 0.97066 1.0297 2.2941 0.74141 3.49-0.26714 1.1083-0.9675 2.0534-1.6304 2.9808-0.21205 0.29667-0.4234 0.59691-0.57516 0.92849-0.15175 0.33158-0.24235 0.69952-0.20054 1.0618 0.02486 0.21517 0.09696 0.42507 0.2127 0.60815 0.11574 0.18308 0.27526 0.33885 0.4636 0.4458 0.06166 0.03503 0.12614 0.06384 0.19186 0.08899h15.46v-11.587c0.0963-0.22108 0.11064-0.4767 0.0395-0.70712h-4.4e-4c-0.0158-0.13148-0.0281-0.26348-0.0391-0.39545v-1.7641c3e-3 -0.0441 7e-3 -0.08831 0.0108-0.1324 0.0302-0.31785 0.0776-0.64348 0.23527-0.92112 0.10696-0.18834 0.26272-0.3483 0.4458-0.46403 0.18308-0.11574 0.39299-0.18744 0.60815-0.21227 0.36225-0.04183 0.73018 0.0488 1.0618 0.20054 0.33158 0.15176 0.63183 0.36312 0.9285 0.57516 0.92747 0.6629 1.8726 1.3628 2.9808 1.63 1.1959 0.28827 2.5189 0.01436 3.4896-0.74142 0.58614-0.45636 1.04-1.0737 1.3331-1.7563 0.2931-0.68258 0.42818-1.4284 0.42974-2.1713 2e-3 -0.9238-0.20464-1.8539-0.64721-2.6648-0.44259-0.81088-1.1265-1.4975-1.9603-1.8952-1.0528-0.5022-2.3405-0.5121-3.3763 0.02428-0.62022 0.32119-1.132 0.8155-1.7164 1.1981-0.54239 0.35508-1.1447 0.61177-1.7628 0.80739-0.1866 0.05905-0.37577 0.11308-0.56995 0.13761-0.19418 0.02453-0.39431 0.01898-0.58123-0.03906-0.21122-0.06552-0.39957-0.19743-0.54434-0.36464-0.14477-0.16719-0.24695-0.3691-0.3095-0.58123-0.0243-0.08224-0.0422-0.16528-0.0556-0.24917v-0.92459c0.0142-0.13422 0.0311-0.2683 0.0477-0.40109 0.0287-0.22848 0.0557-0.45822 0.0512-0.68846-4e-3 -0.1987-0.0317-0.39863-0.099-0.58514v-12.124h-15.266c-0.07871 0.027888-0.1552 0.06132-0.22833 0.10288-0.18834 0.10696-0.3483 0.26273-0.46403 0.4458-0.11573 0.18309-0.18744 0.39299-0.21227 0.60815-0.04183 0.36226 0.0488 0.73019 0.20055 1.0618 0.15175 0.33157 0.36268 0.63183 0.57472 0.9285 0.6629 0.92747 1.3633 1.8726 1.6304 2.9808 0.28828 1.1959 0.01436 2.5189-0.74142 3.4896-0.45635 0.58613-1.0742 1.04-1.7567 1.3331-0.68257 0.29309-1.428 0.42817-2.1708 0.42974-0.9238 0.0017-1.8544-0.20464-2.6653-0.64721-0.81089-0.44257-1.497-1.1265-1.8948-1.9603-0.50219-1.0528-0.5121-2.3405 0.02428-3.3763 0.3212-0.62023 0.81551-1.132 1.1981-1.7164 0.35508-0.5424 0.61177-1.1447 0.8074-1.7628 0.05905-0.1866 0.11308-0.37577 0.13761-0.56995 0.02453-0.19418 0.01848-0.39431-0.03948-0.58124-0.06552-0.21122-0.197-0.39957-0.36419-0.54434-0.10534-0.091203-0.22531-0.16367-0.35204-0.22182h-15.466v15.291c-0.05838 0.12786-0.13293 0.24804-0.22485 0.35421-0.14477 0.16719-0.33312 0.29907-0.54434 0.36463-0.18693 0.05804-0.38706 0.06359-0.58124 0.03906s-0.38335-0.07854-0.56995-0.1376c-0.61806-0.19563-1.2204-0.45232-1.7628-0.80739-0.58438-0.38256-1.0961-0.87644-1.7164-1.1976-1.0358-0.53641-2.3235-0.52694-3.3763-0.02478-0.8338 0.39773-1.5173 1.0843-1.9599 1.8952-0.44258 0.81088-0.6496 1.741-0.64766 2.6648z"
     style="fill:none;stop-color:#000000;stroke-width:1;stroke:#900;stroke-dasharray:none"
     id="path5249" /></svg>
