<?xml version="1.0" encoding="UTF-8" standalone="no"?>
<!-- Created with Inkscape (http://www.inkscape.org/) -->

<svg
   width="169.17mm"
   height="169.17mm"
   version="1.1"
   viewBox="0 0 169.17 169.17"
   id="svg12"
   sodipodi:docname="me_small.svg"
   inkscape:version="1.2.1 (9c6d41e410, 2022-07-14)"
   xmlns:inkscape="http://www.inkscape.org/namespaces/inkscape"
   xmlns:sodipodi="http://sodipodi.sourceforge.net/DTD/sodipodi-0.dtd"
   xmlns="http://www.w3.org/2000/svg"
   xmlns:svg="http://www.w3.org/2000/svg">
  <defs
     id="defs16">
    <inkscape:path-effect
       effect="spiro"
       id="path-effect927"
       is_visible="true"
       lpeversion="1" />
  </defs>
  <sodipodi:namedview
     id="namedview14"
     pagecolor="#ffffff"
     bordercolor="#666666"
     borderopacity="1.0"
     inkscape:showpageshadow="2"
     inkscape:pageopacity="0.0"
     inkscape:pagecheckerboard="0"
     inkscape:deskcolor="#d1d1d1"
     inkscape:document-units="mm"
     showgrid="false"
     inkscape:zoom="0.70145786"
     inkscape:cx="173.21069"
     inkscape:cy="474.01279"
     inkscape:window-width="1912"
     inkscape:window-height="1054"
     inkscape:window-x="0"
     inkscape:window-y="18"
     inkscape:window-maximized="1"
     inkscape:current-layer="svg12" />
  <path
     style="fill:none;stroke:#800000;stroke-width:13.2387;stroke-linecap:butt;stroke-linejoin:miter;stroke-dasharray:none;stroke-opacity:1"
     d="m 48.036984,54.329389 c 7.046248,15.77889 11.255009,32.819873 12.364966,50.064901 0.41068,6.38059 0.367995,12.97284 -1.988572,18.91651 -1.178283,2.97184 -2.938871,5.73921 -5.299998,7.89449 -2.361128,2.15528 -5.339563,3.67686 -8.508938,4.09545 -4.336731,0.57276 -8.761949,-0.94473 -12.358217,-3.43514 -3.596269,-2.49041 -6.459412,-5.89428 -9.042569,-9.42452 C 15.281889,111.61489 9.5574914,99.104388 7.1618175,85.905091 4.7661437,72.705794 5.7647611,58.823443 10.609862,46.314019 15.454962,33.804594 24.212893,22.74371 35.612228,15.67152 47.011563,8.5993302 61.035622,5.665687 74.215165,8.1677556 86.461297,10.492621 97.78745,17.530093 105.13108,27.60203 c 7.34362,10.071937 10.58133,23.092818 8.6087,35.4006 -1.18032,7.36438 -4.32628,14.644983 -9.9717,19.519039 -2.82271,2.437028 -6.23534,4.222457 -9.890431,4.962136 -3.65509,0.739678 -7.548587,0.407179 -10.951657,-1.117921 -1.849941,-0.829059 -3.594175,-2.052778 -4.625479,-3.798068 -0.515651,-0.872644 -0.840768,-1.865401 -0.880576,-2.878229 -0.03981,-1.012828 0.213326,-2.044061 0.768381,-2.892188 0.708915,-1.083225 1.851655,-1.805939 3.021776,-2.359793 2.826351,-1.337798 6.014807,-1.873475 9.131604,-1.621405 3.116797,0.252071 6.157478,1.282726 8.832771,2.901605 5.350591,3.237759 9.114381,8.76985 10.828161,14.7844 2.29909,8.06871 1.10115,16.669004 -0.12759,24.968414 -1.22874,8.2994 -2.45654,16.88965 -0.21238,24.97381 1.50112,5.40749 4.55561,10.37429 8.70422,14.15363 4.1486,3.77933 9.37783,6.35891 14.90145,7.35087 5.52361,0.99197 11.32364,0.39309 16.52804,-1.70657 5.20439,-2.09967 9.79621,-5.6933 13.08507,-10.24058"
     id="path925"
     inkscape:original-d="M 48.036984,54.329389 C 51.994734,70.830341 56.280648,87.7064 60.40195,104.39429 64.523255,121.0822 49.870631,124.99901 44.604442,135.30074 39.338254,145.60251 30.337605,126.72804 23.203656,122.44108 16.06971,118.15412 57.211681,46.259268 74.215165,8.1677556 91.218647,-29.923761 100.56526,44.724742 113.73978,63.00263 126.91431,81.28052 93.197614,78.578537 82.925992,86.365884 c -10.271607,7.787348 -3.158097,-6.378589 -4.737674,-9.568485 -1.579582,-3.189903 2.014867,-1.572795 3.021776,-2.359793 1.006902,-0.787 19.195376,10.710134 28.792536,16.0646 9.59715,5.354466 -0.22629,33.295224 -0.33997,49.942224 -0.11367,16.64701 35.47954,6.37197 53.21878,9.55735"
     inkscape:path-effect="#path-effect927" />
</svg>
