<?xml version="1.0" encoding="UTF-8" standalone="no"?>
<!-- Created with Inkscape (http://www.inkscape.org/) -->

<svg
   width="106.74mm"
   height="169.17mm"
   version="1.1"
   viewBox="0 0 106.74 169.17"
   xml:space="preserve"
   id="svg6265"
   sodipodi:docname="post.svg"
   inkscape:version="1.2.1 (9c6d41e410, 2022-07-14)"
   xmlns:inkscape="http://www.inkscape.org/namespaces/inkscape"
   xmlns:sodipodi="http://sodipodi.sourceforge.net/DTD/sodipodi-0.dtd"
   xmlns="http://www.w3.org/2000/svg"
   xmlns:svg="http://www.w3.org/2000/svg"><defs
     id="defs6269" /><sodipodi:namedview
     id="namedview6267"
     pagecolor="#ffffff"
     bordercolor="#666666"
     borderopacity="1.0"
     inkscape:showpageshadow="2"
     inkscape:pageopacity="0.0"
     inkscape:pagecheckerboard="0"
     inkscape:deskcolor="#d1d1d1"
     inkscape:document-units="mm"
     showgrid="false"
     inkscape:zoom="1.4029157"
     inkscape:cx="202.07914"
     inkscape:cy="320.40414"
     inkscape:window-width="1912"
     inkscape:window-height="1054"
     inkscape:window-x="0"
     inkscape:window-y="18"
     inkscape:window-maximized="1"
     inkscape:current-layer="svg6265" /><g
     transform="matrix(1.1171 0 0 1.2082 42.765 163.24)"
     style="stroke-width:0.86076492;stroke:#800000;stroke-dasharray:none"
     id="g6249"><path
       d="m21.225-121.52c1.6675 0.42026 3.4443 0.39852 5.101-0.0624 0.52473-0.14599 1.0371-0.33495 1.5652-0.46827 0.52809-0.13333 1.0796-0.21041 1.6179-0.12732 0.24031 0.0371 0.47529 0.10579 0.70049 0.19749 0.72308 0.29444 1.3397 0.82785 1.7724 1.4777 0.74309 1.116 0.9317 2.505 1.0098 3.8435 0.08175 1.4016 0.0631 2.8173-0.20158 4.196-0.26468 1.3788-0.78386 2.724-1.6332 3.8419-0.60422 0.79523-1.3729 1.4684-2.2537 1.9392s-1.8738 0.73666-2.8725 0.7425c-1.0656 6e-3 -2.1262-0.2836-3.0614-0.7942-0.93527-0.5106-1.7461-1.2382-2.3891-2.0879-0.86479-1.1426-1.4265-2.5021-1.6942-3.9099s-0.2464-2.8631-0.01196-4.2768c0.44477-2.682 1.6573-5.2152 3.3652-7.3303 2.0847-2.5818 4.9154-4.554 8.0593-5.6161 2.3169-0.78279 4.8591-1.0709 7.2156-0.41703 1.6004 0.44409 3.0665 1.3093 4.3209 2.3979 1.2543 1.0886 2.3041 2.3973 3.2118 3.7882 2.3815 3.6491 3.7925 7.8444 4.8739 12.066 1.4321 5.59 2.3296 11.326 2.4998 17.094 0.24623 8.3468-1.0272 16.659-2.4753 24.883-0.62818 3.5676-1.2901 7.1299-2.0613 10.669-2.0923 9.6027-4.9827 19.01-7.6594 28.466-0.97122 3.4312-1.9162 6.8771-2.5185 10.392-0.65125 3.8001-0.89825 7.6699-0.7268 11.522 0.11593 2.6046 0.45046 5.2874 1.764 7.5394 0.57942 0.9934 1.3468 1.8862 2.2898 2.5445 0.94298 0.65829 2.0658 1.0751 3.2151 1.1137 1.1899 0.039937 2.3738-0.32509 3.3985-0.93126s1.8975-1.4457 2.6399-2.3763c1.2159-1.5242 2.0949-3.2967 2.7383-5.1372 0.4091-1.1704 0.72672-2.3755 0.89415-3.6039 0.01913-0.14036 0.03633-0.28168 0.03191-0.42327-0.0044-0.14159-0.03131-0.28442-0.09616-0.41036-0.05599-0.10874-0.13918-0.20239-0.236-0.27711-0.09683-0.07472-0.20712-0.13092-0.32202-0.17284-0.2298-0.08383-0.47569-0.11074-0.71834-0.14167-1.3043-0.16626-2.5884-0.46609-3.8913-0.64239-1.8745-0.25364-3.7727-0.24984-5.6636-0.29937-1.7491-0.04582-3.497-0.13764-5.2413-0.27535"
       style="fill:none;stroke-width:0.86076492;stroke:#800000;stroke-dasharray:none"
       id="path6243" /><path
       d="m41.199-128.54c-1.0581-1.1962-2.3697-2.1671-3.8227-2.8297-1.5006-0.68425-3.1325-1.0364-4.7674-1.2528-2.3172-0.30673-4.6607-0.34978-6.998-0.36666-5.0656-0.0366-10.132 0.0477-15.195 0.21543-9.2107 0.30508-18.411 0.88612-27.624 1.1228-2.2022 0.0566-4.409 0.0937-6.5974 0.3463-0.41759 0.0482-0.83506 0.10436-1.2444 0.19993-0.55518 0.12962-1.0938 0.33193-1.5937 0.60611-0.99054 0.54332-1.8128 1.3606-2.4677 2.2812-1.1801 1.659-1.8287 3.6331-2.3443 5.6027-0.70011 2.6744-1.1874 5.4728-0.72283 8.1981 0.62858 3.6872 2.9293 6.866 5.4438 9.6351 0.08507 0.0937 0.17076 0.18737 0.26742 0.26905 0.09665 0.0817 0.20512 0.15148 0.32526 0.19123 0.13008 0.043 0.26992 0.0496 0.40645 0.038 0.13652-0.0116 0.27083-0.0408 0.40514-0.0679 1.6144-0.32591 3.2716-0.35503 4.9178-0.40511 3.0117-0.0916 6.0211-0.25712 9.0335-0.32091 6.9805-0.14783 13.959 0.2506 20.935 0.55502 4.9215 0.21478 9.8759 0.38135 14.753-0.31147 0.75963-0.10791 1.5174-0.23678 2.2603-0.42861 1.1267-0.29094 2.2309-0.73532 3.1464-1.4536 0.88852-0.69719 1.5782-1.6449 1.9684-2.7048"
       style="fill:none;stroke-width:0.86076492;stroke:#800000;stroke-dasharray:none"
       id="path6245" /><path
       d="m-19.396-104.74c0.61187 1.4798 1.0928 3.0137 1.4354 4.578 0.40137 1.8326 0.6124 3.7035 0.70674 5.5771 0.10973 2.1794 0.0623 4.3646-0.06835 6.5429-0.18055 3.0103-0.52023 6.0123-1.0565 8.98-0.56354 3.1187-1.3429 6.1937-2.1321 9.263-0.78369 3.0477-1.578 6.0934-2.4737 9.1101-0.91275 3.0742-1.9301 6.1161-2.8961 9.174-1.2135 3.8414-2.3459 7.7079-3.5017 11.567-1.5123 5.0493-3.0722 10.121-3.6678 15.358-0.58039 5.1035-0.23234 10.273 0.4714 15.361 0.20858 1.508 0.45202 3.0257 1.0071 4.4432 0.55511 1.4175 1.4503 2.7432 2.7297 3.5682 0.13295 0.085732 0.26962 0.16584 0.41075 0.23731 0.20173 0.10216 0.41224 0.1865 0.62693 0.25751 0.98344 0.32526 2.0346 0.36653 3.0696 0.40983 4.6649 0.19516 9.325 0.48822 13.985 0.77649 4.6106 0.28521 9.2214 0.56575 13.831 0.86821 8.1953 0.53775 16.387 1.1448 24.591 1.5288 5.6327 0.26365 11.313 0.41946 16.877-0.49843 0.03563-0.00588 0.07125-0.0118 0.10685-0.017852 0.36102-0.061377 0.72055-0.13639 1.0691-0.24872 0.23626-0.076145 0.46702-0.16933 0.6899-0.27859"
       style="fill:none;stroke-width:0.86076492;stroke:#800000;stroke-dasharray:none"
       id="path6247" /></g><path
     d="m33.991 53.693c3.1688 1.2831 6.66 1.7605 10.057 1.3752 2.8818-0.32692 5.7496-1.2627 8.6238-0.8745 1.2584 0.16995 2.4734 0.59088 3.7334 0.7484 1.5448 0.19313 3.11-0.01488 4.6459-0.26985 1.5358-0.25497 3.0745-0.55818 4.6313-0.55612 2.2541 3e-3 4.4835 0.64652 6.734 0.52025 1.8741-0.10515 3.6734-0.73888 5.5168-1.0927 2.5047-0.48076 5.1084-0.4395 7.5967 0.12037"
     style="fill:none;stroke-width:0.5;stroke:#800000;stroke-dasharray:none"
     id="path6251" /><path
     d="m33.416 63.078c3.1688 1.2831 6.66 1.7605 10.057 1.3752 2.8818-0.32692 5.7496-1.2627 8.6238-0.8745 1.2584 0.16995 2.4734 0.59088 3.7334 0.7484 1.5448 0.19313 3.11-0.01488 4.6459-0.26985 1.5358-0.25497 3.0745-0.55818 4.6313-0.55612 2.2541 3e-3 4.4835 0.64652 6.734 0.52025 1.8741-0.10515 3.6734-0.73888 5.5168-1.0927 2.5047-0.48076 5.1084-0.4395 7.5967 0.12037"
     style="fill:none;stroke-width:0.5;stroke:#800000;stroke-dasharray:none"
     id="path6253" /><path
     d="m31.817 72.824c3.1688 1.2831 6.66 1.7605 10.057 1.3752 2.8818-0.32692 5.7496-1.2627 8.6238-0.8745 1.2584 0.16995 2.4734 0.59088 3.7334 0.7484 1.5448 0.19313 3.11-0.01488 4.6459-0.26985 1.5358-0.25497 3.0745-0.55818 4.6313-0.55612 2.2541 3e-3 4.4835 0.64652 6.734 0.52025 1.8741-0.10515 3.6734-0.73888 5.5168-1.0927 2.5047-0.48076 5.1084-0.4395 7.5967 0.12037"
     style="fill:none;stroke-width:0.5;stroke:#800000;stroke-dasharray:none"
     id="path6255" /><path
     d="m29.812 82.355c3.1688 1.2831 6.66 1.7605 10.057 1.3752 2.8818-0.32692 5.7496-1.2627 8.6238-0.8745 1.2584 0.16995 2.4734 0.59088 3.7334 0.7484 1.5448 0.19313 3.11-0.01488 4.6459-0.26985 1.5358-0.25497 3.0745-0.55818 4.6313-0.55612 2.2541 3e-3 4.4835 0.64652 6.734 0.52025 1.8741-0.10515 3.6734-0.73888 5.5168-1.0927 2.5047-0.48076 5.1084-0.4395 7.5967 0.12037"
     style="fill:none;stroke-width:0.5;stroke:#800000;stroke-dasharray:none"
     id="path6257" /><path
     d="m27.462 91.705c3.1688 1.2831 6.66 1.7605 10.057 1.3752 2.8818-0.32692 5.7496-1.2627 8.6238-0.8745 1.2584 0.16995 2.4734 0.59088 3.7334 0.7484 1.5448 0.19313 3.11-0.01488 4.6459-0.26985 1.5358-0.25497 3.0745-0.55818 4.6313-0.55612 2.2541 3e-3 4.4835 0.64652 6.734 0.52025 1.8741-0.10515 3.6734-0.73888 5.5168-1.0927 2.5047-0.48076 5.1084-0.4395 7.5967 0.12037"
     style="fill:none;stroke-width:0.5;stroke:#800000;stroke-dasharray:none"
     id="path6259" /><path
     d="m24.528 100.92c3.1687 1.2831 6.66 1.7605 10.057 1.3752 2.8818-0.32692 5.7496-1.2627 8.6238-0.87451 1.2584 0.16995 2.4734 0.59088 3.7334 0.7484 1.5448 0.19313 3.11-0.0149 4.6459-0.26985 1.5358-0.25498 3.0745-0.55819 4.6313-0.55612 2.2541 3e-3 4.4835 0.64652 6.734 0.52025 1.8741-0.10515 3.6734-0.73888 5.5168-1.0927 2.5047-0.48076 5.1084-0.43951 7.5967 0.12036"
     style="fill:none;stroke-width:0.5;stroke:#800000;stroke-dasharray:none"
     id="path6261" /><path
     d="m61.367 114.56c0.40734 1.0932 0.66693 2.2413 0.76949 3.4034 0.03511 0.39781 0.04953 0.81222-0.10126 1.182-0.07539 0.18489-0.19269 0.355-0.3506 0.47721-0.15791 0.1222-0.35784 0.194-0.55718 0.18242-0.14978-9e-3 -0.29511-0.0637-0.41965-0.14733-0.12454-0.0837-0.2289-0.19524-0.3136-0.31908-0.16939-0.24767-0.25963-0.53947-0.34912-0.82588-0.30784-0.98529-0.6371-1.9807-0.674-3.0123-0.01845-0.5158 0.03807-1.0375 0.2035-1.5264 0.16542-0.48891 0.4427-0.94443 0.82723-1.2887 0.53709-0.48087 1.2754-0.72467 1.9946-0.67429 0.71914 0.0504 1.411 0.39038 1.9024 0.91792 0.346 0.3715 0.59707 0.84113 0.66073 1.3448 0.06366 0.50365-0.07214 1.0396-0.40826 1.42-0.25495 0.28858-0.6071 0.47493-0.96913 0.60612-0.08547 0.031-0.17262 0.0594-0.26286 0.0704-0.09024 0.011-0.18446 4e-3 -0.2671-0.0341-0.04132-0.0189-0.07934-0.0454-0.1101-0.0789-0.03076-0.0335-0.05413-0.074-0.06601-0.11783-0.01188-0.0439-0.01206-0.0911 0.0012-0.13458 0.01325-0.0435 0.04012-0.083 0.07675-0.10989 0.04202-0.0309 0.09507-0.0442 0.14721-0.045 0.05214-8e-4 0.10377 0.0102 0.15396 0.0243 0.27886 0.0784 0.52392 0.25279 0.72182 0.46431 0.1979 0.21153 0.35216 0.4598 0.4933 0.71276 0.14114 0.25296 0.27073 0.51272 0.42633 0.75705 0.1556 0.24433 0.33935 0.47486 0.57096 0.64884 0.39736 0.29849 0.91078 0.40973 1.4077 0.40102 0.4969-9e-3 0.9845-0.12837 1.4657-0.2525 0.54366-0.14023 1.1047-0.29673 1.5344-0.65812 0.21484-0.18069 0.39146-0.4121 0.48274-0.67757 0.09127-0.26548 0.09248-0.56591-0.02213-0.82218-0.10374-0.23197-0.29708-0.41785-0.52192-0.53625-0.22484-0.11839-0.47976-0.17238-0.73366-0.18252-0.50781-0.0203-1.0047 0.12857-1.5041 0.22308-1.078 0.20402-2.186 0.15577-3.2797 0.24192-1.1325 0.0892-2.2623 0.32673-3.2935 0.80317-1.0312 0.47643-1.9621 1.201-2.5905 2.1473-0.0851 0.12815-0.165 0.26095-0.21987 0.40466-0.05488 0.14371-0.08405 0.29959-0.06511 0.45225 0.02433 0.19618 0.12713 0.37662 0.2619 0.52125s0.30053 0.25667 0.47032 0.35793c1.0626 0.63375 2.3251 0.88112 3.5621 0.8572 1.237-0.0239 2.4558-0.30697 3.6375-0.67392 1.1423-0.35475 2.2728-0.79604 3.2492-1.487 0.12101-0.0856 0.24273-0.17859 0.31667-0.30708 0.03697-0.0643 0.06096-0.13681 0.06294-0.21091 2e-3 -0.0741-0.01897-0.14965-0.06411-0.20845-0.05719-0.0745-0.1484-0.11686-0.24084-0.13342-0.09244-0.0166-0.18728-0.01-0.28092-3e-3 -4.2957 0.32995-8.4122 1.7804-12.526 3.0607-0.06531 0.0203-0.13089 0.0407-0.19837 0.0519-0.06748 0.0112-0.13737 0.0131-0.20374-3e-3 -0.06899-0.0172-0.13257-0.0541-0.18365-0.1036-0.05108-0.0495-0.08977-0.11118-0.11472-0.17775-0.0499-0.13316-0.04413-0.28269-0.0047-0.41931 0.07344-0.25446 0.25675-0.46509 0.46722-0.62586 0.33511-0.25599 0.73965-0.40125 1.138-0.53952 5.15-1.7874 10.483-3.0481 15.888-3.7561"
     style="fill:none;stroke-width:0.5;stroke:#900;stroke-dasharray:none"
     id="path6263" /></svg>
